<svg width="1440" height="740" viewBox="0 0 1440 740" fill="none" xmlns="http://www.w3.org/2000/svg">
<rect width="1440" height="740" fill="#121116"/>
<path opacity="0.1" fill-rule="evenodd" clip-rule="evenodd" d="M1287.53 716H1415.3V588.239H1407.53C1341.26 588.239 1287.53 641.965 1287.53 708.239V716ZM1287.53 568.366H1415.3V440.605H1287.53V568.366ZM1415.3 300.395C1415.3 366.669 1361.57 420.395 1295.3 420.395H1287.53V292.634H1415.3V300.395ZM1351.42 272.76C1386.7 272.76 1415.3 244.16 1415.3 208.88C1415.3 173.6 1386.7 145 1351.42 145C1316.14 145 1287.53 173.6 1287.53 208.88C1287.53 244.16 1316.14 272.76 1351.42 272.76ZM1267.66 652.12C1267.66 687.4 1239.06 716 1203.78 716C1168.5 716 1139.9 687.4 1139.9 652.12C1139.9 616.84 1168.5 588.239 1203.78 588.239C1239.06 588.239 1267.66 616.84 1267.66 652.12ZM1147.66 568.366C1213.94 568.366 1267.66 514.64 1267.66 448.366V440.606H1139.9V568.366H1147.66ZM1139.9 420.395V412.634C1139.9 346.36 1193.63 292.634 1259.9 292.634H1267.66V420.395H1139.9ZM1139.9 265V272.76H1267.66V145H1259.9C1193.63 145 1139.9 198.726 1139.9 265ZM1120.03 652.12C1120.03 687.4 1091.43 716 1056.15 716H992.268V588.239H1056.15C1091.43 588.239 1120.03 616.84 1120.03 652.12ZM1056.15 568.366C1091.43 568.366 1120.03 539.766 1120.03 504.486C1120.03 469.206 1091.43 440.606 1056.15 440.606C1020.87 440.606 992.267 469.206 992.267 504.486C992.267 539.766 1020.87 568.366 1056.15 568.366ZM992.268 420.395V292.634H1120.03V420.395H992.268ZM1056.15 272.76H1120.03V145H1056.15C1020.87 145 992.268 173.6 992.268 208.88C992.268 244.16 1020.87 272.76 1056.15 272.76ZM972.395 716H844.634V588.239H972.395V716ZM697 440.606V568.366H824.761V560.606C824.761 494.332 771.035 440.606 704.76 440.606H697ZM844.634 420.732V412.972C844.634 346.698 898.36 292.972 964.634 292.972H972.395V420.732H844.634ZM760.88 716H824.761V588.239H760.88C725.6 588.239 697 616.84 697 652.12C697 687.4 725.6 716 760.88 716ZM972.395 504.486C972.395 539.766 943.794 568.366 908.514 568.366C873.234 568.366 844.634 539.766 844.634 504.486C844.634 469.206 873.234 440.606 908.514 440.606C943.794 440.606 972.395 469.206 972.395 504.486ZM760.88 420.395C796.16 420.395 824.761 391.794 824.761 356.514C824.761 321.234 796.16 292.634 760.88 292.634C725.6 292.634 697 321.234 697 356.514C697 391.794 725.6 420.395 760.88 420.395Z" fill="url(#paint0_linear_14_123)"/>
<defs>
<linearGradient id="paint0_linear_14_123" x1="1874.73" y1="1074.16" x2="759.254" y2="292.324" gradientUnits="userSpaceOnUse">
<stop stop-color="white"/>
<stop offset="1" stop-color="white" stop-opacity="0"/>
</linearGradient>
</defs>
</svg>
