<svg width="176" height="176" viewBox="0 0 176 176" fill="none" xmlns="http://www.w3.org/2000/svg">
<g filter="url(#filter0_d_420_1881)">
<rect x="40" y="20" width="96" height="96" rx="20" fill="white"/>
</g>
<g clip-path="url(#clip0_420_1881)">
<path d="M96 48L106 58V86.016C105.999 86.5424 105.79 87.047 105.418 87.419C105.045 87.791 104.54 88 104.014 88H71.986C71.4608 87.9963 70.958 87.7862 70.5864 87.415C70.2148 87.0438 70.0042 86.5412 70 86.016V49.984C70 48.888 70.89 48 71.986 48H96ZM90 68H96L88 60L80 68H86V76H90V68Z" fill="#6738E1"/>
</g>
<defs>
<filter id="filter0_d_420_1881" x="0" y="0" width="176" height="176" filterUnits="userSpaceOnUse" color-interpolation-filters="sRGB">
<feFlood flood-opacity="0" result="BackgroundImageFix"/>
<feColorMatrix in="SourceAlpha" type="matrix" values="0 0 0 0 0 0 0 0 0 0 0 0 0 0 0 0 0 0 127 0" result="hardAlpha"/>
<feOffset dy="20"/>
<feGaussianBlur stdDeviation="20"/>
<feColorMatrix type="matrix" values="0 0 0 0 0 0 0 0 0 0 0 0 0 0 0 0 0 0 0.25 0"/>
<feBlend mode="normal" in2="BackgroundImageFix" result="effect1_dropShadow_420_1881"/>
<feBlend mode="normal" in="SourceGraphic" in2="effect1_dropShadow_420_1881" result="shape"/>
</filter>
<clipPath id="clip0_420_1881">
<rect width="48" height="48" fill="white" transform="translate(64 44)"/>
</clipPath>
</defs>
</svg>
