<svg width="318" height="139" viewBox="0 0 318 139" fill="none" xmlns="http://www.w3.org/2000/svg">
<g filter="url(#filter0_d_420_1892)">
<rect width="238" height="64" rx="16" transform="matrix(-1 0 0 1 278 20)" fill="white"/>
</g>
<path d="M69.958 58.18C68.398 58.18 67.228 57.742 66.448 56.866C65.668 55.978 65.248 54.79 65.188 53.302C65.176 52.978 65.17 52.45 65.17 51.718C65.17 50.974 65.176 50.434 65.188 50.098C65.248 48.61 65.668 47.428 66.448 46.552C67.228 45.664 68.398 45.22 69.958 45.22C71.026 45.22 71.914 45.418 72.622 45.814C73.33 46.198 73.852 46.69 74.188 47.29C74.536 47.878 74.728 48.484 74.764 49.108V49.144C74.764 49.24 74.728 49.318 74.656 49.378C74.584 49.438 74.494 49.468 74.386 49.468H74.026C73.81 49.468 73.678 49.342 73.63 49.09C73.402 48.07 72.988 47.35 72.388 46.93C71.788 46.51 70.978 46.3 69.958 46.3C68.83 46.3 67.954 46.618 67.33 47.254C66.706 47.89 66.37 48.868 66.322 50.188C66.31 50.512 66.304 51.01 66.304 51.682C66.304 52.354 66.31 52.864 66.322 53.212C66.37 54.532 66.706 55.51 67.33 56.146C67.954 56.782 68.83 57.1 69.958 57.1C70.978 57.1 71.788 56.89 72.388 56.47C72.988 56.05 73.402 55.33 73.63 54.31C73.678 54.058 73.81 53.932 74.026 53.932H74.386C74.494 53.932 74.584 53.968 74.656 54.04C74.74 54.1 74.776 54.184 74.764 54.292C74.728 54.916 74.536 55.528 74.188 56.128C73.852 56.716 73.33 57.208 72.622 57.604C71.914 57.988 71.026 58.18 69.958 58.18ZM80.7466 58.18C79.4986 58.18 78.5266 57.802 77.8306 57.046C77.1466 56.278 76.7866 55.288 76.7506 54.076L76.7326 53.32L76.7506 52.564C76.7866 51.352 77.1466 50.368 77.8306 49.612C78.5266 48.844 79.4986 48.46 80.7466 48.46C81.9946 48.46 82.9606 48.844 83.6446 49.612C84.3406 50.368 84.7066 51.352 84.7426 52.564C84.7546 52.684 84.7606 52.936 84.7606 53.32C84.7606 53.704 84.7546 53.956 84.7426 54.076C84.7066 55.288 84.3406 56.278 83.6446 57.046C82.9606 57.802 81.9946 58.18 80.7466 58.18ZM80.7466 57.136C81.5986 57.136 82.2826 56.866 82.7986 56.326C83.3266 55.774 83.6086 54.994 83.6446 53.986C83.6566 53.866 83.6626 53.644 83.6626 53.32C83.6626 52.996 83.6566 52.774 83.6446 52.654C83.6086 51.646 83.3266 50.872 82.7986 50.332C82.2826 49.78 81.5986 49.504 80.7466 49.504C79.8946 49.504 79.2046 49.78 78.6766 50.332C78.1606 50.872 77.8846 51.646 77.8486 52.654L77.8306 53.32L77.8486 53.986C77.8846 54.994 78.1606 55.774 78.6766 56.326C79.2046 56.866 79.8946 57.136 80.7466 57.136ZM87.6157 58C87.4957 58 87.3997 57.964 87.3277 57.892C87.2557 57.82 87.2197 57.724 87.2197 57.604V49.036C87.2197 48.916 87.2557 48.82 87.3277 48.748C87.3997 48.676 87.4957 48.64 87.6157 48.64H87.9217C88.0417 48.64 88.1377 48.676 88.2097 48.748C88.2817 48.82 88.3177 48.916 88.3177 49.036V49.882C88.6777 49.414 89.0857 49.06 89.5417 48.82C90.0097 48.58 90.6097 48.46 91.3417 48.46C92.5177 48.46 93.4237 48.838 94.0597 49.594C94.6957 50.338 95.0137 51.304 95.0137 52.492V57.604C95.0137 57.724 94.9777 57.82 94.9057 57.892C94.8337 57.964 94.7377 58 94.6177 58H94.3117C94.1917 58 94.0957 57.964 94.0237 57.892C93.9517 57.82 93.9157 57.724 93.9157 57.604V52.582C93.9157 51.61 93.6757 50.854 93.1957 50.314C92.7277 49.774 92.0497 49.504 91.1617 49.504C90.2977 49.504 89.6077 49.78 89.0917 50.332C88.5757 50.872 88.3177 51.622 88.3177 52.582V57.604C88.3177 57.724 88.2817 57.82 88.2097 57.892C88.1377 57.964 88.0417 58 87.9217 58H87.6157ZM100.846 58C99.9583 58 99.3283 57.736 98.9563 57.208C98.5843 56.668 98.3983 55.93 98.3983 54.994V49.684H96.9943C96.8743 49.684 96.7783 49.648 96.7063 49.576C96.6343 49.504 96.5983 49.408 96.5983 49.288V49.036C96.5983 48.916 96.6343 48.82 96.7063 48.748C96.7783 48.676 96.8743 48.64 96.9943 48.64H98.3983V45.616C98.3983 45.496 98.4343 45.4 98.5063 45.328C98.5783 45.256 98.6743 45.22 98.7943 45.22H99.1003C99.2203 45.22 99.3163 45.256 99.3883 45.328C99.4603 45.4 99.4963 45.496 99.4963 45.616V48.64H101.728C101.848 48.64 101.944 48.676 102.016 48.748C102.088 48.82 102.124 48.916 102.124 49.036V49.288C102.124 49.408 102.088 49.504 102.016 49.576C101.944 49.648 101.848 49.684 101.728 49.684H99.4963V54.922C99.4963 55.594 99.6043 56.104 99.8203 56.452C100.048 56.788 100.42 56.956 100.936 56.956H101.908C102.028 56.956 102.124 56.992 102.196 57.064C102.268 57.136 102.304 57.232 102.304 57.352V57.604C102.304 57.724 102.268 57.82 102.196 57.892C102.124 57.964 102.028 58 101.908 58H100.846ZM106.685 58.18C106.109 58.18 105.575 58.06 105.083 57.82C104.591 57.58 104.195 57.256 103.895 56.848C103.607 56.44 103.463 55.99 103.463 55.498C103.463 54.706 103.781 54.058 104.417 53.554C105.065 53.05 105.935 52.726 107.027 52.582L109.871 52.186V51.556C109.871 50.896 109.667 50.392 109.259 50.044C108.863 49.684 108.251 49.504 107.423 49.504C106.811 49.504 106.307 49.624 105.911 49.864C105.527 50.104 105.281 50.392 105.173 50.728C105.125 50.872 105.065 50.974 104.993 51.034C104.933 51.082 104.849 51.106 104.741 51.106H104.489C104.381 51.106 104.285 51.07 104.201 50.998C104.129 50.914 104.093 50.818 104.093 50.71C104.093 50.446 104.213 50.14 104.453 49.792C104.693 49.432 105.065 49.12 105.569 48.856C106.073 48.592 106.691 48.46 107.423 48.46C108.707 48.46 109.619 48.766 110.159 49.378C110.699 49.99 110.969 50.734 110.969 51.61V57.604C110.969 57.724 110.933 57.82 110.861 57.892C110.789 57.964 110.693 58 110.573 58H110.267C110.147 58 110.051 57.964 109.979 57.892C109.907 57.82 109.871 57.724 109.871 57.604V56.758C109.607 57.154 109.217 57.49 108.701 57.766C108.197 58.042 107.525 58.18 106.685 58.18ZM106.865 57.136C107.741 57.136 108.461 56.848 109.025 56.272C109.589 55.696 109.871 54.868 109.871 53.788V53.176L107.549 53.5C106.565 53.632 105.821 53.86 105.317 54.184C104.813 54.508 104.561 54.916 104.561 55.408C104.561 55.96 104.789 56.386 105.245 56.686C105.713 56.986 106.253 57.136 106.865 57.136ZM117.955 58.18C116.635 58.18 115.627 57.706 114.931 56.758V57.604C114.931 57.724 114.895 57.82 114.823 57.892C114.751 57.964 114.655 58 114.535 58H114.229C114.109 58 114.013 57.964 113.941 57.892C113.869 57.82 113.833 57.724 113.833 57.604V45.616C113.833 45.496 113.869 45.4 113.941 45.328C114.013 45.256 114.109 45.22 114.229 45.22H114.535C114.655 45.22 114.751 45.256 114.823 45.328C114.895 45.4 114.931 45.496 114.931 45.616V49.882C115.639 48.934 116.647 48.46 117.955 48.46C119.251 48.46 120.205 48.886 120.817 49.738C121.441 50.578 121.771 51.604 121.807 52.816C121.819 52.936 121.825 53.104 121.825 53.32C121.825 53.536 121.819 53.704 121.807 53.824C121.771 55.036 121.441 56.068 120.817 56.92C120.205 57.76 119.251 58.18 117.955 58.18ZM117.847 57.136C118.819 57.136 119.527 56.83 119.971 56.218C120.427 55.594 120.673 54.796 120.709 53.824C120.721 53.704 120.727 53.536 120.727 53.32C120.727 52.204 120.511 51.292 120.079 50.584C119.647 49.864 118.903 49.504 117.847 49.504C117.211 49.504 116.677 49.654 116.245 49.954C115.813 50.254 115.489 50.638 115.273 51.106C115.057 51.562 114.943 52.048 114.931 52.564L114.913 53.266L114.931 53.968C114.967 54.82 115.225 55.564 115.705 56.2C116.185 56.824 116.899 57.136 117.847 57.136ZM124.455 46.714C124.335 46.714 124.239 46.678 124.167 46.606C124.095 46.534 124.059 46.438 124.059 46.318V45.634C124.059 45.514 124.095 45.418 124.167 45.346C124.239 45.262 124.335 45.22 124.455 45.22H125.139C125.259 45.22 125.355 45.262 125.427 45.346C125.511 45.418 125.553 45.514 125.553 45.634V46.318C125.553 46.438 125.511 46.534 125.427 46.606C125.355 46.678 125.259 46.714 125.139 46.714H124.455ZM124.653 58C124.533 58 124.437 57.964 124.365 57.892C124.293 57.82 124.257 57.724 124.257 57.604V49.036C124.257 48.916 124.293 48.82 124.365 48.748C124.437 48.676 124.533 48.64 124.653 48.64H124.959C125.079 48.64 125.175 48.676 125.247 48.748C125.319 48.82 125.355 48.916 125.355 49.036V57.604C125.355 57.724 125.319 57.82 125.247 57.892C125.175 57.964 125.079 58 124.959 58H124.653ZM128.679 58C128.559 58 128.463 57.964 128.391 57.892C128.319 57.82 128.283 57.724 128.283 57.604V45.616C128.283 45.496 128.319 45.4 128.391 45.328C128.463 45.256 128.559 45.22 128.679 45.22H128.985C129.105 45.22 129.201 45.256 129.273 45.328C129.345 45.4 129.381 45.496 129.381 45.616V57.604C129.381 57.724 129.345 57.82 129.273 57.892C129.201 57.964 129.105 58 128.985 58H128.679ZM132.506 46.714C132.386 46.714 132.29 46.678 132.218 46.606C132.146 46.534 132.11 46.438 132.11 46.318V45.634C132.11 45.514 132.146 45.418 132.218 45.346C132.29 45.262 132.386 45.22 132.506 45.22H133.19C133.31 45.22 133.406 45.262 133.478 45.346C133.562 45.418 133.604 45.514 133.604 45.634V46.318C133.604 46.438 133.562 46.534 133.478 46.606C133.406 46.678 133.31 46.714 133.19 46.714H132.506ZM132.704 58C132.584 58 132.488 57.964 132.416 57.892C132.344 57.82 132.308 57.724 132.308 57.604V49.036C132.308 48.916 132.344 48.82 132.416 48.748C132.488 48.676 132.584 48.64 132.704 48.64H133.01C133.13 48.64 133.226 48.676 133.298 48.748C133.37 48.82 133.406 48.916 133.406 49.036V57.604C133.406 57.724 133.37 57.82 133.298 57.892C133.226 57.964 133.13 58 133.01 58H132.704ZM139.699 58.18C138.403 58.18 137.443 57.76 136.819 56.92C136.207 56.068 135.883 55.036 135.847 53.824L135.829 53.32L135.847 52.816C135.883 51.604 136.207 50.578 136.819 49.738C137.443 48.886 138.403 48.46 139.699 48.46C141.007 48.46 142.015 48.934 142.723 49.882V45.616C142.723 45.496 142.759 45.4 142.831 45.328C142.903 45.256 142.999 45.22 143.119 45.22H143.425C143.545 45.22 143.641 45.256 143.713 45.328C143.785 45.4 143.821 45.496 143.821 45.616V57.604C143.821 57.724 143.785 57.82 143.713 57.892C143.641 57.964 143.545 58 143.425 58H143.119C142.999 58 142.903 57.964 142.831 57.892C142.759 57.82 142.723 57.724 142.723 57.604V56.758C142.027 57.706 141.019 58.18 139.699 58.18ZM139.807 57.136C140.755 57.136 141.469 56.824 141.949 56.2C142.429 55.564 142.687 54.82 142.723 53.968C142.735 53.848 142.741 53.614 142.741 53.266C142.741 52.918 142.735 52.684 142.723 52.564C142.711 52.048 142.597 51.562 142.381 51.106C142.165 50.638 141.841 50.254 141.409 49.954C140.977 49.654 140.443 49.504 139.807 49.504C138.835 49.504 138.121 49.816 137.665 50.44C137.221 51.052 136.981 51.844 136.945 52.816L136.927 53.32C136.927 54.436 137.143 55.354 137.575 56.074C138.007 56.782 138.751 57.136 139.807 57.136ZM149.277 58.18C148.701 58.18 148.167 58.06 147.675 57.82C147.183 57.58 146.787 57.256 146.487 56.848C146.199 56.44 146.055 55.99 146.055 55.498C146.055 54.706 146.373 54.058 147.009 53.554C147.657 53.05 148.527 52.726 149.619 52.582L152.463 52.186V51.556C152.463 50.896 152.259 50.392 151.851 50.044C151.455 49.684 150.843 49.504 150.015 49.504C149.403 49.504 148.899 49.624 148.503 49.864C148.119 50.104 147.873 50.392 147.765 50.728C147.717 50.872 147.657 50.974 147.585 51.034C147.525 51.082 147.441 51.106 147.333 51.106H147.081C146.973 51.106 146.877 51.07 146.793 50.998C146.721 50.914 146.685 50.818 146.685 50.71C146.685 50.446 146.805 50.14 147.045 49.792C147.285 49.432 147.657 49.12 148.161 48.856C148.665 48.592 149.283 48.46 150.015 48.46C151.299 48.46 152.211 48.766 152.751 49.378C153.291 49.99 153.561 50.734 153.561 51.61V57.604C153.561 57.724 153.525 57.82 153.453 57.892C153.381 57.964 153.285 58 153.165 58H152.859C152.739 58 152.643 57.964 152.571 57.892C152.499 57.82 152.463 57.724 152.463 57.604V56.758C152.199 57.154 151.809 57.49 151.293 57.766C150.789 58.042 150.117 58.18 149.277 58.18ZM149.457 57.136C150.333 57.136 151.053 56.848 151.617 56.272C152.181 55.696 152.463 54.868 152.463 53.788V53.176L150.141 53.5C149.157 53.632 148.413 53.86 147.909 54.184C147.405 54.508 147.153 54.916 147.153 55.408C147.153 55.96 147.381 56.386 147.837 56.686C148.305 56.986 148.845 57.136 149.457 57.136ZM159.791 58.18C158.495 58.18 157.535 57.76 156.911 56.92C156.299 56.068 155.975 55.036 155.939 53.824L155.921 53.32L155.939 52.816C155.975 51.604 156.299 50.578 156.911 49.738C157.535 48.886 158.495 48.46 159.791 48.46C161.099 48.46 162.107 48.934 162.815 49.882V45.616C162.815 45.496 162.851 45.4 162.923 45.328C162.995 45.256 163.091 45.22 163.211 45.22H163.517C163.637 45.22 163.733 45.256 163.805 45.328C163.877 45.4 163.913 45.496 163.913 45.616V57.604C163.913 57.724 163.877 57.82 163.805 57.892C163.733 57.964 163.637 58 163.517 58H163.211C163.091 58 162.995 57.964 162.923 57.892C162.851 57.82 162.815 57.724 162.815 57.604V56.758C162.119 57.706 161.111 58.18 159.791 58.18ZM159.899 57.136C160.847 57.136 161.561 56.824 162.041 56.2C162.521 55.564 162.779 54.82 162.815 53.968C162.827 53.848 162.833 53.614 162.833 53.266C162.833 52.918 162.827 52.684 162.815 52.564C162.803 52.048 162.689 51.562 162.473 51.106C162.257 50.638 161.933 50.254 161.501 49.954C161.069 49.654 160.535 49.504 159.899 49.504C158.927 49.504 158.213 49.816 157.757 50.44C157.313 51.052 157.073 51.844 157.037 52.816L157.019 53.32C157.019 54.436 157.235 55.354 157.667 56.074C158.099 56.782 158.843 57.136 159.899 57.136ZM170.323 58.18C169.183 58.18 168.265 57.808 167.569 57.064C166.873 56.308 166.477 55.3 166.381 54.04L166.363 53.32L166.381 52.6C166.477 51.352 166.867 50.35 167.551 49.594C168.247 48.838 169.171 48.46 170.323 48.46C171.571 48.46 172.543 48.874 173.239 49.702C173.947 50.53 174.301 51.664 174.301 53.104V53.374C174.301 53.494 174.259 53.59 174.175 53.662C174.103 53.734 174.007 53.77 173.887 53.77H167.479V53.95C167.503 54.514 167.629 55.042 167.857 55.534C168.097 56.014 168.427 56.404 168.847 56.704C169.267 56.992 169.759 57.136 170.323 57.136C170.983 57.136 171.517 57.01 171.925 56.758C172.345 56.494 172.645 56.23 172.825 55.966C172.933 55.822 173.011 55.732 173.059 55.696C173.119 55.66 173.221 55.642 173.365 55.642H173.653C173.761 55.642 173.851 55.672 173.923 55.732C173.995 55.792 174.031 55.87 174.031 55.966C174.031 56.218 173.869 56.524 173.545 56.884C173.233 57.232 172.795 57.538 172.231 57.802C171.667 58.054 171.031 58.18 170.323 58.18ZM173.203 52.762V52.69C173.203 51.766 172.939 51.004 172.411 50.404C171.895 49.804 171.199 49.504 170.323 49.504C169.447 49.504 168.751 49.804 168.235 50.404C167.731 51.004 167.479 51.766 167.479 52.69V52.762H173.203ZM182.242 58C182.122 58 182.026 57.964 181.954 57.892C181.882 57.82 181.846 57.724 181.846 57.604V49.684H180.244C180.124 49.684 180.028 49.648 179.956 49.576C179.884 49.504 179.848 49.408 179.848 49.288V49.036C179.848 48.916 179.884 48.82 179.956 48.748C180.028 48.676 180.124 48.64 180.244 48.64H181.846V47.614C181.846 46.702 182.044 45.988 182.44 45.472C182.836 44.944 183.544 44.68 184.564 44.68H185.5C185.62 44.68 185.716 44.716 185.788 44.788C185.86 44.86 185.896 44.956 185.896 45.076V45.328C185.896 45.448 185.86 45.544 185.788 45.616C185.716 45.688 185.62 45.724 185.5 45.724H184.564C183.952 45.724 183.526 45.886 183.286 46.21C183.058 46.522 182.944 47.02 182.944 47.704V48.64H185.32C185.44 48.64 185.536 48.676 185.608 48.748C185.68 48.82 185.716 48.916 185.716 49.036V49.288C185.716 49.408 185.68 49.504 185.608 49.576C185.536 49.648 185.44 49.684 185.32 49.684H182.944V57.604C182.944 57.724 182.908 57.82 182.836 57.892C182.764 57.964 182.668 58 182.548 58H182.242ZM189.847 58.18C189.271 58.18 188.737 58.06 188.245 57.82C187.753 57.58 187.357 57.256 187.057 56.848C186.769 56.44 186.625 55.99 186.625 55.498C186.625 54.706 186.943 54.058 187.579 53.554C188.227 53.05 189.097 52.726 190.189 52.582L193.033 52.186V51.556C193.033 50.896 192.829 50.392 192.421 50.044C192.025 49.684 191.413 49.504 190.585 49.504C189.973 49.504 189.469 49.624 189.073 49.864C188.689 50.104 188.443 50.392 188.335 50.728C188.287 50.872 188.227 50.974 188.155 51.034C188.095 51.082 188.011 51.106 187.903 51.106H187.651C187.543 51.106 187.447 51.07 187.363 50.998C187.291 50.914 187.255 50.818 187.255 50.71C187.255 50.446 187.375 50.14 187.615 49.792C187.855 49.432 188.227 49.12 188.731 48.856C189.235 48.592 189.853 48.46 190.585 48.46C191.869 48.46 192.781 48.766 193.321 49.378C193.861 49.99 194.131 50.734 194.131 51.61V57.604C194.131 57.724 194.095 57.82 194.023 57.892C193.951 57.964 193.855 58 193.735 58H193.429C193.309 58 193.213 57.964 193.141 57.892C193.069 57.82 193.033 57.724 193.033 57.604V56.758C192.769 57.154 192.379 57.49 191.863 57.766C191.359 58.042 190.687 58.18 189.847 58.18ZM190.027 57.136C190.903 57.136 191.623 56.848 192.187 56.272C192.751 55.696 193.033 54.868 193.033 53.788V53.176L190.711 53.5C189.727 53.632 188.983 53.86 188.479 54.184C187.975 54.508 187.723 54.916 187.723 55.408C187.723 55.96 187.951 56.386 188.407 56.686C188.875 56.986 189.415 57.136 190.027 57.136ZM200.524 58.18C199.276 58.18 198.31 57.82 197.626 57.1C196.942 56.368 196.582 55.348 196.546 54.04L196.528 53.32L196.546 52.6C196.582 51.292 196.942 50.278 197.626 49.558C198.31 48.826 199.276 48.46 200.524 48.46C201.316 48.46 201.988 48.604 202.54 48.892C203.104 49.168 203.524 49.528 203.8 49.972C204.076 50.404 204.226 50.854 204.25 51.322C204.262 51.43 204.226 51.526 204.142 51.61C204.058 51.682 203.962 51.718 203.854 51.718H203.602C203.482 51.718 203.392 51.694 203.332 51.646C203.284 51.586 203.23 51.484 203.17 51.34C202.93 50.68 202.594 50.212 202.162 49.936C201.73 49.648 201.184 49.504 200.524 49.504C199.66 49.504 198.97 49.768 198.454 50.296C197.95 50.812 197.68 51.61 197.644 52.69L197.626 53.32L197.644 53.95C197.68 55.03 197.95 55.834 198.454 56.362C198.97 56.878 199.66 57.136 200.524 57.136C201.184 57.136 201.73 56.998 202.162 56.722C202.594 56.434 202.93 55.96 203.17 55.3C203.23 55.156 203.284 55.06 203.332 55.012C203.392 54.952 203.482 54.922 203.602 54.922H203.854C203.962 54.922 204.058 54.964 204.142 55.048C204.226 55.12 204.262 55.21 204.25 55.318C204.226 55.786 204.076 56.242 203.8 56.686C203.524 57.118 203.104 57.478 202.54 57.766C201.988 58.042 201.316 58.18 200.524 58.18ZM206.826 46.714C206.706 46.714 206.61 46.678 206.538 46.606C206.466 46.534 206.43 46.438 206.43 46.318V45.634C206.43 45.514 206.466 45.418 206.538 45.346C206.61 45.262 206.706 45.22 206.826 45.22H207.51C207.63 45.22 207.726 45.262 207.798 45.346C207.882 45.418 207.924 45.514 207.924 45.634V46.318C207.924 46.438 207.882 46.534 207.798 46.606C207.726 46.678 207.63 46.714 207.51 46.714H206.826ZM207.024 58C206.904 58 206.808 57.964 206.736 57.892C206.664 57.82 206.628 57.724 206.628 57.604V49.036C206.628 48.916 206.664 48.82 206.736 48.748C206.808 48.676 206.904 48.64 207.024 48.64H207.33C207.45 48.64 207.546 48.676 207.618 48.748C207.69 48.82 207.726 48.916 207.726 49.036V57.604C207.726 57.724 207.69 57.82 207.618 57.892C207.546 57.964 207.45 58 207.33 58H207.024ZM211.05 58C210.93 58 210.834 57.964 210.762 57.892C210.69 57.82 210.654 57.724 210.654 57.604V45.616C210.654 45.496 210.69 45.4 210.762 45.328C210.834 45.256 210.93 45.22 211.05 45.22H211.356C211.476 45.22 211.572 45.256 211.644 45.328C211.716 45.4 211.752 45.496 211.752 45.616V57.604C211.752 57.724 211.716 57.82 211.644 57.892C211.572 57.964 211.476 58 211.356 58H211.05ZM214.877 46.714C214.757 46.714 214.661 46.678 214.589 46.606C214.517 46.534 214.481 46.438 214.481 46.318V45.634C214.481 45.514 214.517 45.418 214.589 45.346C214.661 45.262 214.757 45.22 214.877 45.22H215.561C215.681 45.22 215.777 45.262 215.849 45.346C215.933 45.418 215.975 45.514 215.975 45.634V46.318C215.975 46.438 215.933 46.534 215.849 46.606C215.777 46.678 215.681 46.714 215.561 46.714H214.877ZM215.075 58C214.955 58 214.859 57.964 214.787 57.892C214.715 57.82 214.679 57.724 214.679 57.604V49.036C214.679 48.916 214.715 48.82 214.787 48.748C214.859 48.676 214.955 48.64 215.075 48.64H215.381C215.501 48.64 215.597 48.676 215.669 48.748C215.741 48.82 215.777 48.916 215.777 49.036V57.604C215.777 57.724 215.741 57.82 215.669 57.892C215.597 57.964 215.501 58 215.381 58H215.075ZM221.837 58C220.949 58 220.319 57.736 219.947 57.208C219.575 56.668 219.389 55.93 219.389 54.994V49.684H217.985C217.865 49.684 217.769 49.648 217.697 49.576C217.625 49.504 217.589 49.408 217.589 49.288V49.036C217.589 48.916 217.625 48.82 217.697 48.748C217.769 48.676 217.865 48.64 217.985 48.64H219.389V45.616C219.389 45.496 219.425 45.4 219.497 45.328C219.569 45.256 219.665 45.22 219.785 45.22H220.091C220.211 45.22 220.307 45.256 220.379 45.328C220.451 45.4 220.487 45.496 220.487 45.616V48.64H222.719C222.839 48.64 222.935 48.676 223.007 48.748C223.079 48.82 223.115 48.916 223.115 49.036V49.288C223.115 49.408 223.079 49.504 223.007 49.576C222.935 49.648 222.839 49.684 222.719 49.684H220.487V54.922C220.487 55.594 220.595 56.104 220.811 56.452C221.039 56.788 221.411 56.956 221.927 56.956H222.899C223.019 56.956 223.115 56.992 223.187 57.064C223.259 57.136 223.295 57.232 223.295 57.352V57.604C223.295 57.724 223.259 57.82 223.187 57.892C223.115 57.964 223.019 58 222.899 58H221.837ZM227.675 58.18C227.099 58.18 226.565 58.06 226.073 57.82C225.581 57.58 225.185 57.256 224.885 56.848C224.597 56.44 224.453 55.99 224.453 55.498C224.453 54.706 224.771 54.058 225.407 53.554C226.055 53.05 226.925 52.726 228.017 52.582L230.861 52.186V51.556C230.861 50.896 230.657 50.392 230.249 50.044C229.853 49.684 229.241 49.504 228.413 49.504C227.801 49.504 227.297 49.624 226.901 49.864C226.517 50.104 226.271 50.392 226.163 50.728C226.115 50.872 226.055 50.974 225.983 51.034C225.923 51.082 225.839 51.106 225.731 51.106H225.479C225.371 51.106 225.275 51.07 225.191 50.998C225.119 50.914 225.083 50.818 225.083 50.71C225.083 50.446 225.203 50.14 225.443 49.792C225.683 49.432 226.055 49.12 226.559 48.856C227.063 48.592 227.681 48.46 228.413 48.46C229.697 48.46 230.609 48.766 231.149 49.378C231.689 49.99 231.959 50.734 231.959 51.61V57.604C231.959 57.724 231.923 57.82 231.851 57.892C231.779 57.964 231.683 58 231.563 58H231.257C231.137 58 231.041 57.964 230.969 57.892C230.897 57.82 230.861 57.724 230.861 57.604V56.758C230.597 57.154 230.207 57.49 229.691 57.766C229.187 58.042 228.515 58.18 227.675 58.18ZM227.855 57.136C228.731 57.136 229.451 56.848 230.015 56.272C230.579 55.696 230.861 54.868 230.861 53.788V53.176L228.539 53.5C227.555 53.632 226.811 53.86 226.307 54.184C225.803 54.508 225.551 54.916 225.551 55.408C225.551 55.96 225.779 56.386 226.235 56.686C226.703 56.986 227.243 57.136 227.855 57.136ZM238.19 58.18C236.894 58.18 235.934 57.76 235.31 56.92C234.698 56.068 234.374 55.036 234.338 53.824L234.32 53.32L234.338 52.816C234.374 51.604 234.698 50.578 235.31 49.738C235.934 48.886 236.894 48.46 238.19 48.46C239.498 48.46 240.506 48.934 241.214 49.882V45.616C241.214 45.496 241.25 45.4 241.322 45.328C241.394 45.256 241.49 45.22 241.61 45.22H241.916C242.036 45.22 242.132 45.256 242.204 45.328C242.276 45.4 242.312 45.496 242.312 45.616V57.604C242.312 57.724 242.276 57.82 242.204 57.892C242.132 57.964 242.036 58 241.916 58H241.61C241.49 58 241.394 57.964 241.322 57.892C241.25 57.82 241.214 57.724 241.214 57.604V56.758C240.518 57.706 239.51 58.18 238.19 58.18ZM238.298 57.136C239.246 57.136 239.96 56.824 240.44 56.2C240.92 55.564 241.178 54.82 241.214 53.968C241.226 53.848 241.232 53.614 241.232 53.266C241.232 52.918 241.226 52.684 241.214 52.564C241.202 52.048 241.088 51.562 240.872 51.106C240.656 50.638 240.332 50.254 239.9 49.954C239.468 49.654 238.934 49.504 238.298 49.504C237.326 49.504 236.612 49.816 236.156 50.44C235.712 51.052 235.472 51.844 235.436 52.816L235.418 53.32C235.418 54.436 235.634 55.354 236.066 56.074C236.498 56.782 237.242 57.136 238.298 57.136ZM247.767 58.18C247.191 58.18 246.657 58.06 246.165 57.82C245.673 57.58 245.277 57.256 244.977 56.848C244.689 56.44 244.545 55.99 244.545 55.498C244.545 54.706 244.863 54.058 245.499 53.554C246.147 53.05 247.017 52.726 248.109 52.582L250.953 52.186V51.556C250.953 50.896 250.749 50.392 250.341 50.044C249.945 49.684 249.333 49.504 248.505 49.504C247.893 49.504 247.389 49.624 246.993 49.864C246.609 50.104 246.363 50.392 246.255 50.728C246.207 50.872 246.147 50.974 246.075 51.034C246.015 51.082 245.931 51.106 245.823 51.106H245.571C245.463 51.106 245.367 51.07 245.283 50.998C245.211 50.914 245.175 50.818 245.175 50.71C245.175 50.446 245.295 50.14 245.535 49.792C245.775 49.432 246.147 49.12 246.651 48.856C247.155 48.592 247.773 48.46 248.505 48.46C249.789 48.46 250.701 48.766 251.241 49.378C251.781 49.99 252.051 50.734 252.051 51.61V57.604C252.051 57.724 252.015 57.82 251.943 57.892C251.871 57.964 251.775 58 251.655 58H251.349C251.229 58 251.133 57.964 251.061 57.892C250.989 57.82 250.953 57.724 250.953 57.604V56.758C250.689 57.154 250.299 57.49 249.783 57.766C249.279 58.042 248.607 58.18 247.767 58.18ZM247.947 57.136C248.823 57.136 249.543 56.848 250.107 56.272C250.671 55.696 250.953 54.868 250.953 53.788V53.176L248.631 53.5C247.647 53.632 246.903 53.86 246.399 54.184C245.895 54.508 245.643 54.916 245.643 55.408C245.643 55.96 245.871 56.386 246.327 56.686C246.795 56.986 247.335 57.136 247.947 57.136Z" fill="#6738E1"/>
<defs>
<filter id="filter0_d_420_1892" x="0" y="0" width="318" height="144" filterUnits="userSpaceOnUse" color-interpolation-filters="sRGB">
<feFlood flood-opacity="0" result="BackgroundImageFix"/>
<feColorMatrix in="SourceAlpha" type="matrix" values="0 0 0 0 0 0 0 0 0 0 0 0 0 0 0 0 0 0 127 0" result="hardAlpha"/>
<feOffset dy="20"/>
<feGaussianBlur stdDeviation="20"/>
<feColorMatrix type="matrix" values="0 0 0 0 0 0 0 0 0 0 0 0 0 0 0 0 0 0 0.25 0"/>
<feBlend mode="normal" in2="BackgroundImageFix" result="effect1_dropShadow_420_1892"/>
<feBlend mode="normal" in="SourceGraphic" in2="effect1_dropShadow_420_1892" result="shape"/>
</filter>
</defs>
</svg>
