<svg width="66" height="32" viewBox="0 0 66 32" fill="none" xmlns="http://www.w3.org/2000/svg">
<path d="M41 4C41 1.79086 42.7909 0 45 0H62C64.2091 0 66 1.79086 66 4V28C66 30.2091 64.2091 32 62 32H45C42.7909 32 41 30.2091 41 28V4Z" fill="#6738E1"/>
<path d="M47.984 26V23.168L52.64 16.016C52.992 15.488 53.32 14.976 53.624 14.48C53.944 13.984 54.2 13.48 54.392 12.968C54.6 12.456 54.704 11.92 54.704 11.36C54.704 10.8 54.592 10.384 54.368 10.112C54.144 9.84 53.84 9.704 53.456 9.704C53.024 9.704 52.688 9.824 52.448 10.064C52.208 10.304 52.04 10.624 51.944 11.024C51.864 11.424 51.824 11.872 51.824 12.368V13.328H47.936V12.296C47.936 11.144 48.12 10.12 48.488 9.224C48.856 8.312 49.44 7.6 50.24 7.088C51.04 6.56 52.088 6.296 53.384 6.296C55.128 6.296 56.44 6.752 57.32 7.664C58.216 8.56 58.664 9.816 58.664 11.432C58.664 12.216 58.536 12.944 58.28 13.616C58.04 14.288 57.712 14.944 57.296 15.584C56.896 16.208 56.464 16.864 56 17.552L52.448 22.856H58.136V26H47.984Z" fill="white"/>
<path d="M3.192 26V9.752H0.264V6.56H10.416V9.752H7.512V26H3.192ZM13.3275 26V6.56H22.0635V9.488H17.6235V14.312H21.0075V17.288H17.6235V23.096H22.1115V26H13.3275ZM30.8299 26.288C29.3579 26.288 28.1899 26.024 27.3259 25.496C26.4779 24.952 25.8779 24.2 25.5259 23.24C25.1739 22.264 24.9979 21.12 24.9979 19.808V12.8C24.9979 11.456 25.1739 10.304 25.5259 9.344C25.8779 8.368 26.4779 7.616 27.3259 7.088C28.1899 6.56 29.3579 6.296 30.8299 6.296C32.2699 6.296 33.3899 6.536 34.1899 7.016C35.0059 7.48 35.5819 8.136 35.9179 8.984C36.2539 9.832 36.4219 10.808 36.4219 11.912V13.592H32.2219V11.648C32.2219 11.264 32.1979 10.896 32.1499 10.544C32.1179 10.192 32.0059 9.904 31.8139 9.68C31.6219 9.44 31.2939 9.32 30.8299 9.32C30.3819 9.32 30.0459 9.44 29.8219 9.68C29.6139 9.92 29.4779 10.224 29.4139 10.592C29.3659 10.944 29.3419 11.32 29.3419 11.72V20.864C29.3419 21.296 29.3739 21.696 29.4379 22.064C29.5179 22.416 29.6619 22.704 29.8699 22.928C30.0939 23.136 30.4139 23.24 30.8299 23.24C31.2779 23.24 31.5979 23.128 31.7899 22.904C31.9819 22.664 32.1019 22.36 32.1499 21.992C32.1979 21.624 32.2219 21.248 32.2219 20.864V18.824H36.4219V20.504C36.4219 21.608 36.2539 22.6 35.9179 23.48C35.5979 24.344 35.0299 25.032 34.2139 25.544C33.4139 26.04 32.2859 26.288 30.8299 26.288Z" fill="#232129"/>
</svg>
